<svg xmlns="http://www.w3.org/2000/svg" width="25" height="24" viewBox="0 0 25 24" fill="none">
  <path d="M14.5 19H19.5V5H5.5V19H12.5V14H10.5V12H12.5V10.3458C12.5 9.00855 12.6392 8.52362 12.9007 8.03473C13.1622 7.54584 13.5458 7.16216 14.0347 6.9007C14.4174 6.69604 14.8922 6.57252 15.7217 6.51954C16.051 6.49851 16.4771 6.52533 17 6.6V8.5H16.5C15.5827 8.5 15.2042 8.54332 14.9779 8.66433C14.8376 8.73939 14.7394 8.83758 14.6643 8.97793C14.5433 9.20418 14.5 9.42853 14.5 10.3458V12H17L16.5 14H14.5V19ZM4.5 3H20.5C21.0523 3 21.5 3.44772 21.5 4V20C21.5 20.5523 21.0523 21 20.5 21H4.5C3.94772 21 3.5 20.5523 3.5 20V4C3.5 3.44772 3.94772 3 4.5 3Z" fill="#A3A3A3"/>
</svg>