<svg xmlns="http://www.w3.org/2000/svg" width="25" height="24" viewBox="0 0 25 24" fill="none">
  <path d="M6.38401 18.6531C6.08404 18.4523 5.82587 18.1972 5.5239 17.8366C5.41473 17.7062 4.97283 17.1521 5.05811 17.258C4.59533 16.6831 4.30296 16.4168 4.00156 16.3087C3.4817 16.1223 3.2114 15.5497 3.39784 15.0298C3.58428 14.51 4.15685 14.2397 4.67672 14.4261C5.42936 14.696 5.93847 15.1609 6.62425 16.0141C6.53025 15.8972 6.96364 16.4408 7.05731 16.5526C7.24784 16.7802 7.38732 16.918 7.49629 16.9909C7.70118 17.128 8.08451 17.1871 8.64709 17.1308C8.67065 16.7487 8.74136 16.378 8.84919 16.0355C5.88097 15.3101 4.20116 13.3949 4.20116 9.63947C4.20116 8.4006 4.5704 7.28368 5.25917 6.34756C5.0415 5.45368 5.07433 4.37259 5.56092 3.15611C5.6725 2.87715 5.90361 2.66314 6.19031 2.57328C6.27242 2.54949 6.31791 2.5389 6.39878 2.52648C7.20167 2.40319 8.33573 2.69681 9.81449 3.62311C10.681 3.41855 11.5885 3.31476 12.5012 3.31476C13.4129 3.31476 14.3196 3.41835 15.1854 3.62253C16.6619 2.68976 17.7986 2.39625 18.6072 2.52627C18.6919 2.53988 18.7645 2.55758 18.8249 2.57741C19.1059 2.66967 19.3316 2.88155 19.4414 3.15611C19.9279 4.37232 19.9608 5.45319 19.7433 6.34695C20.4342 7.28313 20.8012 8.39184 20.8012 9.63947C20.8012 13.3966 19.127 15.3046 16.1588 16.0318C16.2837 16.4467 16.3496 16.9103 16.3496 17.4118C16.3496 18.0763 16.3471 18.7108 16.3424 19.4223C16.3412 19.6124 16.3397 19.8156 16.3375 20.1279C16.7129 20.2107 17.0229 20.5074 17.1031 20.9086C17.2114 21.4502 16.8602 21.977 16.3186 22.0853C15.1794 22.3132 14.3353 21.5535 14.3353 20.5608C14.3353 20.4705 14.336 20.3414 14.3375 20.1142C14.3398 19.8012 14.3412 19.5987 14.3425 19.4092C14.3471 18.7017 14.3496 18.0714 14.3496 17.4118C14.3496 16.7145 14.1664 16.26 13.9237 16.0508C13.2627 15.481 13.5977 14.3971 14.465 14.2996C17.4314 13.9663 18.8012 12.8174 18.8012 9.63947C18.8012 8.68484 18.4893 7.89547 17.8881 7.23534C17.6301 6.95209 17.5567 6.54634 17.699 6.19062C17.8647 5.77639 17.9354 5.2336 17.7941 4.57678L17.7847 4.57944C17.2928 4.71861 16.6744 5.01956 15.9261 5.52826C15.682 5.69413 15.3772 5.74377 15.0932 5.66388C14.2729 5.43319 13.3913 5.31476 12.5012 5.31476C11.611 5.31476 10.7294 5.43319 9.90916 5.66388C9.62662 5.74335 9.32344 5.69468 9.07997 5.53077C8.3274 5.02414 7.7056 4.72355 7.21079 4.58352C7.06735 5.23672 7.13814 5.77758 7.30336 6.19062C7.44565 6.54634 7.37219 6.95209 7.11423 7.23534C6.51715 7.89096 6.20116 8.69352 6.20116 9.63947C6.20116 12.8114 7.57225 13.9681 10.523 14.2996C11.3883 14.3969 11.7246 15.4767 11.0675 16.048C10.8751 16.2153 10.6384 16.7799 10.6384 17.4118V20.5608C10.6384 21.5472 9.80356 22.2866 8.67878 22.0898C8.13476 21.9946 7.77093 21.4764 7.86613 20.9324C7.93827 20.5201 8.25331 20.2114 8.63841 20.1274V19.1379C7.72829 19.1991 6.97656 19.0496 6.38401 18.6531Z" fill="#A3A3A3"/>
</svg>