<svg xmlns="http://www.w3.org/2000/svg" width="25" height="24" viewBox="0 0 25 24" fill="none">
  <path d="M12.501 9C10.8436 9 9.50098 10.3431 9.50098 12C9.50098 13.6573 10.8441 15 12.501 15C14.1583 15 15.501 13.6569 15.501 12C15.501 10.3427 14.1579 9 12.501 9ZM12.501 7C15.2614 7 17.501 9.2371 17.501 12C17.501 14.7605 15.2639 17 12.501 17C9.74051 17 7.50098 14.7629 7.50098 12C7.50098 9.23953 9.73808 7 12.501 7ZM19.001 6.74915C19.001 7.43926 18.4402 7.99917 17.751 7.99917C17.0609 7.99917 16.501 7.4384 16.501 6.74915C16.501 6.0599 17.0617 5.5 17.751 5.5C18.4393 5.49913 19.001 6.0599 19.001 6.74915ZM12.501 4C10.0265 4 9.62318 4.00655 8.47227 4.0578C7.68815 4.09461 7.16253 4.20007 6.67416 4.38967C6.24016 4.55799 5.92709 4.75898 5.59352 5.09255C5.25867 5.4274 5.05804 5.73963 4.8904 6.17383C4.70036 6.66332 4.59493 7.18811 4.55878 7.97115C4.50703 9.0752 4.50098 9.46105 4.50098 12C4.50098 14.4745 4.50753 14.8778 4.55877 16.0286C4.5956 16.8124 4.7012 17.3388 4.89034 17.826C5.0591 18.2606 5.2605 18.5744 5.59246 18.9064C5.92863 19.2421 6.24179 19.4434 6.67187 19.6094C7.16619 19.8005 7.69148 19.9061 8.47212 19.9422C9.57618 19.9939 9.96203 20 12.501 20C14.9755 20 15.3788 19.9934 16.5296 19.9422C17.3117 19.9055 17.8385 19.7996 18.327 19.6106C18.7604 19.4423 19.0752 19.2402 19.4074 18.9085C19.7436 18.5718 19.9445 18.2594 20.1107 17.8283C20.3013 17.3358 20.4071 16.8098 20.4432 16.0289C20.4949 14.9248 20.501 14.5389 20.501 12C20.501 9.52552 20.4944 9.12221 20.4432 7.97137C20.4064 7.18906 20.3005 6.66149 20.1113 6.17318C19.9434 5.74038 19.7417 5.42635 19.4084 5.09255C19.073 4.75715 18.7616 4.55693 18.3271 4.38942C17.838 4.19954 17.3124 4.09396 16.5298 4.05781C15.4258 4.00605 15.0399 4 12.501 4ZM12.501 2C15.2176 2 15.5568 2.01 16.6235 2.06C17.6876 2.10917 18.4135 2.2775 19.051 2.525C19.7101 2.77917 20.2668 3.1225 20.8226 3.67833C21.3776 4.23417 21.721 4.7925 21.976 5.45C22.2226 6.08667 22.391 6.81333 22.441 7.8775C22.4885 8.94417 22.501 9.28333 22.501 12C22.501 14.7167 22.491 15.0558 22.441 16.1225C22.3918 17.1867 22.2226 17.9125 21.976 18.55C21.7218 19.2092 21.3776 19.7658 20.8226 20.3217C20.2668 20.8767 19.7076 21.22 19.051 21.475C18.4135 21.7217 17.6876 21.89 16.6235 21.94C15.5568 21.9875 15.2176 22 12.501 22C9.78431 22 9.44514 21.99 8.37848 21.94C7.31431 21.8908 6.58931 21.7217 5.95098 21.475C5.29264 21.2208 4.73514 20.8767 4.17931 20.3217C3.62348 19.7658 3.28098 19.2067 3.02598 18.55C2.77848 17.9125 2.61098 17.1867 2.56098 16.1225C2.51348 15.0558 2.50098 14.7167 2.50098 12C2.50098 9.28333 2.51098 8.94417 2.56098 7.8775C2.61014 6.8125 2.77848 6.0875 3.02598 5.45C3.28014 4.79167 3.62348 4.23417 4.17931 3.67833C4.73514 3.1225 5.29348 2.78 5.95098 2.525C6.58848 2.2775 7.31348 2.11 8.37848 2.06C9.44514 2.0125 9.78431 2 12.501 2Z" fill="#A3A3A3"/>
</svg>