<svg width="164" height="48" viewBox="0 0 164 48" fill="none" xmlns="http://www.w3.org/2000/svg">
<path d="M53.8652 19.729L56.8438 28.5547L59.6636 19.729H57.9668V16.604H64.5952V19.729H62.8984L65.9136 28.5547L68.8188 19.729H66.9634V16.604H74.3486V19.729H72.3467L67.2441 35.0977H63.8384L60.9453 26.6992L58.1987 35.0977H54.6709L49.4219 19.729H47.4688V16.604H55.7695V19.729H53.8652ZM83.4077 27.2974V32.0459H85.4829V35H79.3306V33.999C78.1668 34.7965 77.0031 35.1953 75.8394 35.1953C74.4315 35.1953 73.3044 34.8332 72.458 34.1089C71.6117 33.3846 71.1885 32.408 71.1885 31.1792C71.1885 29.8771 71.6605 28.8354 72.6045 28.0542C73.5566 27.2648 74.818 26.8701 76.3887 26.8701C76.9339 26.8701 77.4181 26.9312 77.8413 27.0532C78.2726 27.1672 78.769 27.3665 79.3306 27.6514V26.626C79.3306 25.9749 79.1271 25.4541 78.7202 25.0635C78.3133 24.6729 77.703 24.4775 76.8892 24.4775C76.0021 24.4775 75.2168 24.8193 74.5332 25.5029L71.2373 24.9048C72.2383 22.8866 74.3053 21.8774 77.4385 21.8774C79.5869 21.8774 81.1169 22.321 82.0283 23.208C82.9479 24.0869 83.4077 25.45 83.4077 27.2974ZM76.7549 32.644C77.4873 32.644 78.3459 32.2046 79.3306 31.3257V30.1782C78.4517 29.6086 77.646 29.3237 76.9136 29.3237C76.3276 29.3237 75.88 29.4621 75.5708 29.7388C75.2616 30.0155 75.1069 30.4102 75.1069 30.9229C75.1069 32.0703 75.6562 32.644 76.7549 32.644ZM99.1074 26.8213V32.0459H101.036V35H95.0059V27.1509C95.0059 26.5487 94.9123 26.1133 94.7251 25.8447C94.5461 25.568 94.2409 25.4297 93.8096 25.4297C93.0283 25.4297 92.243 25.7104 91.4536 26.272V32.0459H93.4556V35H85.4355V32.0459H87.3887V25.1733H85.4355V22.1704H91.4536V23.3789C92.6743 22.4593 93.9276 21.9995 95.2134 21.9995C96.491 21.9995 97.4595 22.4064 98.1187 23.2202C98.7778 24.0259 99.1074 25.2262 99.1074 26.8213ZM120.631 19.729H118.263V16.604H126.479V19.729H123.915V35.1221H119.838L111.879 21.4746V31.875H114.186V35H106.129V31.875H108.607V19.729H106.129V16.604H113.856L120.631 28.103V19.729ZM137.344 27.2974V32.0459H139.419V35H133.267V33.999C132.103 34.7965 130.94 35.1953 129.776 35.1953C128.368 35.1953 127.241 34.8332 126.395 34.1089C125.548 33.3846 125.125 32.408 125.125 31.1792C125.125 29.8771 125.597 28.8354 126.541 28.0542C127.493 27.2648 128.755 26.8701 130.325 26.8701C130.87 26.8701 131.355 26.9312 131.778 27.0532C132.209 27.1672 132.706 27.3665 133.267 27.6514V26.626C133.267 25.9749 133.064 25.4541 132.657 25.0635C132.25 24.6729 131.639 24.4775 130.826 24.4775C129.939 24.4775 129.153 24.8193 128.47 25.5029L125.174 24.9048C126.175 22.8866 128.242 21.8774 131.375 21.8774C133.523 21.8774 135.053 22.321 135.965 23.208C136.884 24.0869 137.344 25.45 137.344 27.2974ZM130.691 32.644C131.424 32.644 132.282 32.2046 133.267 31.3257V30.1782C132.388 29.6086 131.583 29.3237 130.85 29.3237C130.264 29.3237 129.817 29.4621 129.507 29.7388C129.198 30.0155 129.043 30.4102 129.043 30.9229C129.043 32.0703 129.593 32.644 130.691 32.644ZM145.646 18.5205C145.646 19.1715 145.423 19.7127 144.975 20.144C144.536 20.5672 144.011 20.7788 143.4 20.7788C142.782 20.7788 142.249 20.5591 141.801 20.1196C141.362 19.672 141.142 19.139 141.142 18.5205C141.142 17.9102 141.362 17.3853 141.801 16.9458C142.249 16.4982 142.782 16.2744 143.4 16.2744C144.011 16.2744 144.536 16.4982 144.975 16.9458C145.423 17.3853 145.646 17.9102 145.646 18.5205ZM147.294 32.0459V35H139.372V32.0459H141.325V25.1733H139.372V22.1704H145.39V32.0459H147.294ZM160.992 26.8213V32.0459H162.921V35H156.891V27.1509C156.891 26.5487 156.797 26.1133 156.61 25.8447C156.431 25.568 156.126 25.4297 155.694 25.4297C154.913 25.4297 154.128 25.7104 153.338 26.272V32.0459H155.34V35H147.32V32.0459H149.273V25.1733H147.32V22.1704H153.338V23.3789C154.559 22.4593 155.812 21.9995 157.098 21.9995C158.376 21.9995 159.344 22.4064 160.003 23.2202C160.663 24.0259 160.992 25.2262 160.992 26.8213Z" fill="#171717"/>
<path d="M10.5 22.1667L10.501 7.5H7.40723L3.16666 8.63626V12.9056L6.83332 11.9183V22.1667H10.5ZM34.3333 16.6667L27 7.5L19.6667 16.6667H25.1667V40.5H28.8333V16.6667H34.3333ZM8.66666 32.25C7.65414 32.25 6.83332 31.4292 6.83332 30.4167C6.83332 29.4041 7.65414 28.5833 8.66666 28.5833C9.67917 28.5833 10.5 29.4041 10.5 30.4167C10.5 31.4292 9.67917 32.25 8.66666 32.25ZM13.3836 33.2466C13.8808 32.4198 14.1667 31.4516 14.1667 30.4167C14.1667 27.379 11.7042 24.9167 8.66666 24.9167C5.6291 24.9167 3.16666 27.379 3.16666 30.4167C3.16666 33.1108 5.10377 35.3526 7.66118 35.825L4.96206 40.5H9.19596L13.3836 33.2466Z" fill="#404040"/>
</svg>
